<?xml version="1.0" encoding="utf-8"?>
<!-- Generator: Adobe Illustrator 16.0.0, SVG Export Plug-In . SVG Version: 6.00 Build 0)  -->
<!DOCTYPE svg PUBLIC "-//W3C//DTD SVG 1.1//EN" "http://www.w3.org/Graphics/SVG/1.1/DTD/svg11.dtd">
<svg version="1.1" id="Capa_1" xmlns="http://www.w3.org/2000/svg" xmlns:xlink="http://www.w3.org/1999/xlink" x="0px" y="0px"
	 width="209.242px" height="194.155px" viewBox="0 0 209.242 194.155" enable-background="new 0 0 209.242 194.155"
	 xml:space="preserve">
<g>
	<path fill="#2B3375" d="M171.149,43.39c0-23.903-29.7-43.39-66.337-43.39C68.175,0,38.476,19.486,38.476,43.39
		c0,0.616-0.008,2.321-0.008,2.54c0,25.36,25.959,45.896,66.336,45.896c40.623,0,66.346-20.533,66.346-45.893
		C171.149,45.048,171.149,44.538,171.149,43.39z"/>
	<ellipse fill="#1F9CD8" cx="104.824" cy="43.367" rx="63.785" ry="40.805"/>
	<path fill="#FFFFFF" d="M83.645,30.494c-0.034,0.064-0.669,0.723-0.257,1.252c1.007,1.285,4.115,2.022,7.26,1.318
		c1.872-0.421,4.271-2.33,6.596-4.174c2.52-2.001,5.018-4.005,7.53-4.802c2.66-0.847,4.364-0.483,5.49-0.144
		c1.236,0.369,2.688,1.182,5.005,2.921c4.365,3.281,21.914,18.599,24.946,21.247c2.441-1.103,13.295-5.775,28.044-9.025
		c-1.281-7.863-6.063-15.058-13.318-20.947c-10.111,4.246-22.464,6.461-34.546,0.561c-0.063-0.025-6.601-3.12-13.051-2.968
		c-9.586,0.223-13.739,4.371-18.134,8.763L83.645,30.494z"/>
	<path fill="#FFFFFF" d="M139.502,49.779c-0.206-0.184-20.635-18.059-25.264-21.537c-2.679-2.009-4.167-2.521-5.731-2.721
		c-0.814-0.105-1.939,0.045-2.727,0.261c-2.152,0.586-4.968,2.468-7.468,4.45c-2.587,2.061-5.028,4.002-7.291,4.509
		c-2.894,0.649-6.426-0.117-8.038-1.207c-0.652-0.438-1.112-0.946-1.333-1.462c-0.595-1.38,0.503-2.484,0.683-2.669l5.638-6.099
		c0.655-0.652,1.316-1.308,1.991-1.952c-1.818,0.237-3.5,0.702-5.138,1.157c-2.042,0.574-4.008,1.121-5.995,1.119
		c-0.829,0-5.275-0.729-6.119-0.957c-5.103-1.396-9.58-2.756-16.269-5.879c-8.015,5.966-13.374,13.426-14.923,21.643
		c1.151,0.305,3.007,0.857,3.787,1.029c18.137,4.033,23.785,8.188,24.811,9.055c1.109-1.234,2.71-2.016,4.496-2.016
		c2.008,0.003,3.815,1.011,4.915,2.569c1.039-0.82,2.471-1.522,4.323-1.521c0.841,0,1.713,0.155,2.594,0.455
		c2.047,0.702,3.103,2.064,3.65,3.298c0.687-0.311,1.53-0.539,2.524-0.536c0.976,0,1.992,0.223,3.016,0.665
		c3.345,1.436,3.865,4.72,3.562,7.196c0.238-0.027,0.479-0.039,0.722-0.039c3.964,0.003,7.189,3.226,7.188,7.192
		c0,1.228-0.313,2.382-0.86,3.396c1.079,0.605,3.829,1.979,6.244,1.672c1.929-0.243,2.661-0.902,2.923-1.272
		c0.18-0.256,0.369-0.554,0.193-0.767l-5.117-5.686c0,0-0.843-0.797-0.564-1.104c0.288-0.315,0.809,0.138,1.178,0.445
		c2.604,2.175,5.783,5.458,5.783,5.458c0.055,0.035,0.265,0.451,1.441,0.662c1.012,0.182,2.804,0.076,4.044-0.943
		c0.313-0.258,0.626-0.578,0.889-0.91c-0.021,0.017-0.038,0.039-0.058,0.046c1.309-1.675-0.146-3.369-0.146-3.369l-5.974-6.709
		c0,0-0.855-0.79-0.564-1.107c0.26-0.275,0.81,0.141,1.185,0.451c1.891,1.582,4.564,4.265,7.125,6.773
		c0.501,0.366,2.751,1.759,5.733-0.199c1.81-1.187,2.172-2.644,2.121-3.744c-0.126-1.456-1.262-2.493-1.262-2.493l-8.161-8.205
		c0,0-0.862-0.736-0.558-1.108c0.25-0.313,0.809,0.138,1.176,0.445c2.6,2.175,9.637,8.628,9.637,8.628
		c0.102,0.07,2.532,1.802,5.538-0.111c1.074-0.688,1.761-1.723,1.819-2.926C140.974,51.019,139.502,49.779,139.502,49.779z"/>
	<path fill="#FFFFFF" d="M99.917,60.182c-1.266-0.016-2.649,0.736-2.83,0.627c-0.101-0.066,0.077-0.574,0.195-0.867
		c0.121-0.292,1.789-5.307-2.274-7.048c-3.108-1.336-5.009,0.167-5.662,0.845c-0.171,0.178-0.248,0.164-0.268-0.063
		c-0.063-0.902-0.466-3.346-3.149-4.164c-3.835-1.174-6.301,1.502-6.926,2.468c-0.28-2.186-2.128-3.882-4.392-3.884
		c-2.458-0.002-4.453,1.99-4.456,4.447c0,2.459,1.992,4.452,4.451,4.452c1.195,0.003,2.278-0.475,3.078-1.242
		c0.025,0.023,0.035,0.065,0.022,0.151c-0.187,1.1-0.532,5.1,3.657,6.729c1.68,0.652,3.108,0.168,4.293-0.663
		c0.353-0.249,0.41-0.144,0.359,0.188c-0.15,1.028,0.041,3.231,3.129,4.483c2.35,0.955,3.74-0.021,4.651-0.863
		c0.396-0.362,0.505-0.304,0.524,0.256c0.112,2.977,2.586,5.34,5.589,5.343c3.095,0.003,5.603-2.498,5.604-5.592
		C105.517,62.69,103.011,60.215,99.917,60.182z"/>
	<path fill="#2B3375" d="M140.292,47.639c-6.293-5.491-20.837-18.136-24.775-21.092c-2.251-1.693-3.786-2.587-5.133-2.988
		c-0.605-0.184-1.443-0.391-2.521-0.393c-1.002,0-2.078,0.182-3.201,0.539c-2.547,0.806-5.082,2.821-7.535,4.771l-0.127,0.1
		c-2.285,1.816-4.646,3.695-6.434,4.094c-0.78,0.176-1.582,0.267-2.382,0.267c-2.002-0.003-3.801-0.58-4.475-1.44
		c-0.111-0.142-0.04-0.371,0.221-0.703l0.034-0.043l5.536-5.967c4.335-4.336,8.432-8.43,17.859-8.646
		c0.155-0.005,0.315-0.008,0.471-0.008c5.868,0.004,11.733,2.631,12.393,2.936c5.502,2.684,11.182,4.047,16.89,4.052
		c5.95,0.001,12.089-1.471,18.543-4.442c-0.721-0.607-1.471-1.197-2.242-1.775c-5.671,2.457-11.072,3.699-16.285,3.698
		c-5.324-0.005-10.642-1.283-15.806-3.803c-0.272-0.13-6.749-3.185-13.489-3.188c-0.177,0-0.355,0.003-0.532,0.006
		c-7.919,0.187-12.379,2.997-15.379,5.461c-2.917,0.071-5.435,0.774-7.675,1.4c-1.998,0.556-3.723,1.037-5.406,1.036
		c-0.693,0-1.941-0.063-2.053-0.068c-1.937-0.059-11.688-2.45-19.445-5.387c-0.792,0.561-1.554,1.139-2.296,1.729
		c8.104,3.322,17.965,5.892,21.078,6.093c0.865,0.057,1.788,0.154,2.711,0.156c2.06,0,4.114-0.577,6.103-1.134
		c1.175-0.329,2.472-0.688,3.834-0.949c-0.363,0.357-0.727,0.72-1.091,1.084l-5.625,6.085c-0.442,0.447-1.404,1.639-0.77,3.108
		c0.251,0.592,0.763,1.159,1.479,1.641c1.341,0.902,3.74,1.513,5.97,1.515c0.845,0.002,1.646-0.084,2.382-0.249
		c2.358-0.528,4.831-2.499,7.451-4.582c2.087-1.658,5.054-3.765,7.324-4.383c0.634-0.173,1.414-0.28,2.04-0.28
		c0.188,0.002,0.363,0.008,0.528,0.031c1.5,0.19,2.951,0.7,5.54,2.645c4.617,3.469,25.049,21.342,25.248,21.518
		c0.014,0.012,1.317,1.136,1.227,3.004c-0.049,1.041-0.627,1.967-1.632,2.608c-0.872,0.554-1.772,0.835-2.682,0.835
		c-1.366-0.003-2.306-0.642-2.368-0.686c-0.074-0.062-7.075-6.48-9.65-8.637c-0.41-0.34-0.809-0.646-1.211-0.646
		c-0.216-0.001-0.406,0.092-0.535,0.252c-0.405,0.5,0.049,1.191,0.583,1.646l8.177,8.22c0.012,0.009,1.02,0.954,1.13,2.215
		c0.064,1.362-0.587,2.502-1.941,3.39c-0.965,0.636-1.941,0.958-2.898,0.958c-1.257,0-2.137-0.571-2.332-0.708l-1.174-1.155
		c-2.143-2.109-4.356-4.29-5.978-5.643c-0.395-0.328-0.815-0.632-1.219-0.632c-0.199,0-0.377,0.074-0.515,0.219
		c-0.185,0.205-0.313,0.574,0.147,1.187c0.189,0.252,0.413,0.46,0.413,0.46l5.967,6.703c0.05,0.061,1.229,1.462,0.135,2.859
		l-0.21,0.268c-0.18,0.197-0.372,0.379-0.556,0.535c-1.018,0.835-2.377,0.924-2.916,0.924c-0.288,0-0.565-0.024-0.807-0.068
		c-0.588-0.105-0.985-0.27-1.176-0.495l-0.073-0.076c-0.325-0.337-3.333-3.407-5.821-5.484c-0.328-0.275-0.737-0.621-1.16-0.621
		c-0.21,0-0.396,0.082-0.539,0.24c-0.492,0.539,0.247,1.347,0.56,1.642l5.09,5.612c-0.006,0.05-0.069,0.165-0.193,0.343
		c-0.182,0.251-0.799,0.869-2.645,1.101c-0.222,0.029-0.45,0.041-0.676,0.041c-1.904,0-3.935-0.924-4.981-1.479
		c0.477-1.007,0.724-2.114,0.724-3.226c0.002-4.189-3.4-7.597-7.588-7.6c-0.09,0-0.186,0.003-0.274,0.006
		c0.137-1.912-0.134-5.534-3.851-7.128c-1.07-0.463-2.137-0.698-3.174-0.698c-0.813,0-1.593,0.139-2.327,0.42
		c-0.771-1.497-2.049-2.587-3.718-3.155c-0.921-0.319-1.838-0.48-2.725-0.48c-1.547,0-2.972,0.456-4.242,1.359
		c-1.219-1.515-3.058-2.411-4.994-2.411c-1.695,0-3.326,0.678-4.534,1.875c-1.584-1.21-7.868-5.201-24.688-9.021
		c-0.815-0.187-2.685-0.721-3.829-1.056c-0.189,0.91-0.335,1.83-0.43,2.76c0,0,3.102,0.742,3.711,0.88
		c17.183,3.815,22.86,7.784,23.819,8.534c-0.325,0.781-0.494,1.623-0.495,2.471c-0.003,3.55,2.885,6.441,6.437,6.444
		c0.397,0,0.793-0.035,1.181-0.106c0.535,2.611,2.244,4.592,4.857,5.608c0.763,0.293,1.535,0.444,2.293,0.444
		c0.491,0.001,0.984-0.061,1.467-0.184c0.482,1.225,1.567,2.752,3.994,3.738c0.852,0.343,1.702,0.521,2.529,0.521
		c0.676,0,1.336-0.119,1.966-0.35c1.163,2.832,3.931,4.708,7.017,4.708c2.045,0.003,4.009-0.83,5.439-2.304
		c1.227,0.681,3.814,1.914,6.428,1.917c0.339,0,0.656-0.023,0.974-0.062c2.595-0.328,3.805-1.343,4.358-2.133
		c0.101-0.138,0.191-0.284,0.269-0.437c0.613,0.178,1.287,0.321,2.06,0.322c1.417,0,2.778-0.483,4.152-1.484
		c1.352-0.974,2.313-2.373,2.451-3.563c0.003-0.017,0.004-0.034,0.007-0.052c0.456,0.094,0.923,0.142,1.39,0.142
		c1.46,0,2.896-0.455,4.268-1.354c2.647-1.735,3.105-4.002,3.063-5.485c0.464,0.097,0.937,0.146,1.406,0.146
		c1.371,0,2.717-0.413,3.998-1.23c1.641-1.048,2.629-2.654,2.779-4.522c0.102-1.27-0.213-2.551-0.883-3.652
		c4.435-1.91,14.569-5.607,26.504-8.297c-0.071-0.926-0.205-1.84-0.371-2.75C153.765,41.775,142.99,46.438,140.292,47.639z
		 M99.917,70.978c-2.805-0.003-5.084-2.182-5.188-4.959c-0.007-0.237-0.031-0.87-0.567-0.87c-0.22,0-0.411,0.132-0.632,0.331
		c-0.615,0.571-1.401,1.153-2.549,1.153c-0.52,0-1.084-0.122-1.679-0.365c-2.962-1.199-3.003-3.234-2.882-4.052
		c0.032-0.218,0.043-0.445-0.107-0.621l-0.182-0.164h-0.185c-0.151,0-0.306,0.062-0.515,0.21c-0.857,0.602-1.679,0.893-2.514,0.893
		c-0.46,0-0.932-0.092-1.403-0.273c-3.899-1.518-3.592-5.197-3.401-6.305c0.028-0.225-0.027-0.398-0.17-0.514l-0.275-0.228
		l-0.258,0.246c-0.76,0.732-1.753,1.134-2.798,1.134c-2.233-0.003-4.051-1.816-4.049-4.051c0.001-2.233,1.82-4.047,4.054-4.044
		c2.018,0,3.736,1.518,3.993,3.533l0.14,1.087l0.598-0.92c0.066-0.107,1.702-2.581,4.711-2.578c0.571,0,1.162,0.092,1.758,0.275
		c2.397,0.732,2.803,2.906,2.866,3.812c0.042,0.528,0.418,0.554,0.491,0.554c0.207,0,0.359-0.132,0.469-0.244
		c0.452-0.473,1.438-1.259,2.979-1.259c0.706,0.003,1.457,0.17,2.232,0.504c3.812,1.635,2.083,6.478,2.062,6.527
		c-0.327,0.803-0.34,1.157-0.032,1.362l0.149,0.072h0.111c0.173,0,0.387-0.075,0.738-0.195c0.52-0.179,1.302-0.448,2.034-0.447
		h0.002c2.868,0.031,5.202,2.366,5.2,5.202C105.118,68.649,102.784,70.978,99.917,70.978z"/>
	<path fill="#2B3375" d="M205.65,117.744c-2.394-3.002-6.028-4.5-10.907-4.5c-4.872,0-8.508,1.498-10.901,4.5
		c-2.396,2.996-3.595,6.541-3.595,10.631c0,4.163,1.198,7.72,3.595,10.679c2.394,2.953,6.029,4.432,10.901,4.432
		c4.879,0,8.514-1.479,10.907-4.432c2.396-2.959,3.592-6.516,3.592-10.679C209.242,124.285,208.047,120.74,205.65,117.744z
		 M199.718,134.952c-1.162,1.541-2.824,2.313-4.998,2.313c-2.168,0-3.838-0.771-5.01-2.313s-1.755-3.735-1.755-6.577
		c0-2.838,0.583-5.027,1.755-6.561s2.842-2.3,5.01-2.3c2.174,0,3.836,0.767,4.998,2.3c1.16,1.533,1.744,3.723,1.744,6.561
		C201.462,131.217,200.878,133.411,199.718,134.952z"/>
	<path fill="#2B3375" d="M144.454,115.234c-2.428-1.231-5.208-1.853-8.334-1.853c-4.81,0-8.201,1.255-10.177,3.759
		c-1.241,1.604-1.939,3.646-2.102,6.137h7.184c0.176-1.098,0.528-1.969,1.06-2.611c0.74-0.869,1.999-1.305,3.78-1.305
		c1.591,0,2.794,0.219,3.616,0.668c0.818,0.441,1.23,1.248,1.23,2.412c0,0.959-0.533,1.661-1.604,2.117
		c-0.598,0.26-1.588,0.477-2.977,0.651l-2.547,0.312c-2.891,0.367-5.088,0.979-6.575,1.832c-2.72,1.566-4.078,4.096-4.078,7.596
		c0,2.694,0.843,4.782,2.536,6.251c1.684,1.471,3.83,2.09,6.42,2.209c16.244,0.725,16.06-8.56,16.209-10.49v-10.687
		C148.097,118.806,146.881,116.473,144.454,115.234z M140.682,131.449c-0.05,2.489-0.764,4.203-2.133,5.144
		c-1.369,0.939-2.866,1.412-4.489,1.412c-1.029,0-1.898-0.287-2.615-0.85c-0.715-0.566-1.071-1.485-1.071-2.757
		c0-1.426,0.584-2.479,1.757-3.158c0.695-0.398,1.834-0.741,3.42-1.014l1.696-0.315c0.844-0.159,1.511-0.331,1.994-0.513
		c0.49-0.18,0.966-0.416,1.441-0.715V131.449z"/>
	<path fill="#2B3375" d="M107.417,119.748c1.856,0,3.221,0.572,4.102,1.719c0.603,0.848,0.98,1.805,1.127,2.865h8.014
		c-0.44-4.043-1.855-6.863-4.243-8.463c-2.395-1.591-5.462-2.394-9.215-2.394c-4.414,0-7.88,1.356-10.383,4.06
		c-2.51,2.711-3.765,6.496-3.765,11.361c0,4.31,1.136,7.821,3.406,10.528s5.813,4.061,10.627,4.061
		c4.817,0,8.455-1.623,10.906-4.867c1.539-2.012,2.398-4.146,2.581-6.402h-7.985c-0.163,1.491-0.629,2.707-1.402,3.645
		c-0.77,0.934-2.068,1.404-3.904,1.404c-2.586,0-4.347-1.179-5.281-3.542c-0.513-1.261-0.772-2.931-0.772-5.008
		c0-2.178,0.26-3.926,0.772-5.245C102.972,120.991,104.78,119.748,107.417,119.748z"/>
	<path fill="#2B3375" d="M90.906,113.476c-16.457,0-15.484,14.571-15.484,14.571v14.8h7.469v-13.882
		c0-2.273,0.288-3.959,0.856-5.055c1.026-1.94,3.026-2.914,6.014-2.914c0.226,0,0.521,0.012,0.886,0.029s0.777,0.049,1.252,0.105
		v-7.6c-0.332-0.021-0.547-0.032-0.638-0.041C91.162,113.481,91.045,113.476,90.906,113.476z"/>
	<path fill="#2B3375" d="M63.472,135.113c-0.313,0.448-0.651,0.832-1.021,1.13c-1.056,0.867-2.489,1.133-4.177,1.133
		c-1.596,0-2.844-0.242-3.976-0.955c-1.862-1.144-2.911-3.083-3.023-5.928h20.665c0.029-2.448-0.05-4.323-0.247-5.63
		c-0.345-2.221-1.1-4.182-2.259-5.865c-1.289-1.912-2.929-3.311-4.903-4.199c-1.979-0.882-4.201-1.326-6.67-1.326
		c-4.161,0-7.539,1.313-10.146,3.932c-2.604,2.626-3.912,6.393-3.912,11.305c0,5.247,1.445,9.032,4.333,11.358
		c2.884,2.326,6.219,3.492,9.992,3.492c4.573,0,8.134-1.379,10.675-4.141c1.369-1.451,2.228-2.889,2.59-4.306H63.472z
		 M53.433,121.209c1.05-1.079,2.525-1.619,4.428-1.619c1.752,0,3.219,0.506,4.402,1.529c1.18,1.018,1.84,2.515,1.975,4.479H51.456
		C51.724,123.752,52.386,122.291,53.433,121.209z"/>
	<path fill="#2B3375" d="M40.803,142.845h-6.821v-17.177c0-1.57-0.519-5.303-5.019-5.303c-3,0-5.171,2.164-5.171,5.303v17.177h-6.83
		v-17.177c0-1.57-0.465-5.303-4.963-5.303c-3.053,0-5.173,2.164-5.173,5.303v17.177H0v-17.014c0-7.091,4.706-12.455,11.999-12.455
		c3.621,0,6.567,1.521,8.483,3.958c2.014-2.438,5.013-3.958,8.48-3.958c7.447,0,11.84,5.146,11.84,12.455V142.845z"/>
	<path fill="#2B3375" d="M178.026,104.505c0,0-7.523-0.804-7.523,5.238l-0.006,8.001c-0.832-1.336-1.916-2.383-3.252-3.135
		c-1.333-0.754-2.859-1.134-4.582-1.134c-3.732,0-6.706,1.388-8.938,4.164c-2.232,2.778-3.343,6.78-3.343,11.62
		c0,4.199,1.131,7.644,3.396,10.323c2.265,2.678,6.706,3.854,10.649,3.854c13.752,0,13.594-11.792,13.594-11.792L178.026,104.505z
		 M169.067,135.014c-1.09,1.562-2.692,2.343-4.787,2.343c-2.104,0-3.668-0.787-4.699-2.356c-1.031-1.571-1.547-3.859-1.547-6.479
		c0-2.432,0.504-4.465,1.521-6.104c1.014-1.639,2.604-2.461,4.775-2.461c1.424,0,2.672,0.451,3.75,1.352
		c1.752,1.494,2.628,4.172,2.628,7.641C170.708,131.431,170.16,133.452,169.067,135.014z"/>
	<path fill="#1F9CD8" d="M54.353,187.997c0,1.014-0.367,1.882-1.105,2.604c-0.729,0.724-1.609,1.085-2.639,1.085h-3.736V165.69
		c0-5.055,1.705-8.221,4.509-10.361c1.854-1.414,4.614-2.764,9.788-2.764c3.492,0,7.583,1.356,9.791,4.05
		c2.48,3.03,3.513,6.405,3.513,10.815c0,4.561-1.098,8.24-3.295,11.069c-2.2,2.752-5.024,4.122-8.472,4.122
		c-1.83,0-3.443-0.325-4.836-0.974c-1.47-0.726-2.638-1.847-3.518-3.367V187.997z M66.889,167.757c0-2.822-0.548-4.991-1.653-6.512
		c-1.1-1.514-2.674-2.279-4.727-2.279c-1.979,0-3.52,0.766-4.624,2.279c-1.022,1.377-1.532,3.551-1.532,6.512
		c0,2.755,0.547,4.81,1.648,6.186c1.096,1.52,2.676,2.28,4.727,2.28c1.904,0,3.408-0.761,4.508-2.28
		C66.341,172.423,66.889,170.368,66.889,167.757"/>
	<path fill="#1F9CD8" d="M124.041,180.226v-1.837c-1.294,2.027-3.044,3.283-5.239,3.794c-2.197,0.5-4.377,0.322-6.529-0.547
		c-2.165-0.864-4.021-2.474-5.57-4.821c-1.545-2.356-2.318-5.445-2.318-9.277c0-4.476,1.025-8.111,3.075-10.893
		c2.054-2.782,5.351-4.053,9.886-4.176c4.471-0.117,7.069,0.893,9.613,2.819c2.781,2.113,4.427,5.354,4.427,10.409v15.294
		c0.011,4.864-3.382,13.885-14.04,13.118c-6.604-0.478-10.268-3.186-12.313-9.325h7.884c0.576,1.011,1.456,1.788,2.651,2.326
		c1.182,0.547,2.376,0.688,3.556,0.436c1.188-0.252,2.271-0.959,3.247-2.113C123.339,184.276,123.896,182.54,124.041,180.226
		 M111.728,167.761c0,4.984,1.44,7.749,4.322,8.294c2.875,0.534,5.003-0.134,6.371-2.01c0.648-0.789,1.114-2.042,1.402-3.735
		c0.287-1.698,0.309-3.381,0.055-5.041c-0.248-1.667-0.844-3.148-1.782-4.451c-0.933-1.297-2.302-1.952-4.104-1.952
		c-2.448,0-4.102,0.907-4.967,2.709C112.155,163.385,111.728,165.444,111.728,167.761"/>
	<path fill="#1F9CD8" d="M97.984,154.532c-2.433-1.23-5.218-1.855-8.347-1.855c-4.818,0-8.214,1.259-10.194,3.766
		c-1.241,1.605-1.942,3.652-2.104,6.146h7.198c0.177-1.1,0.528-1.972,1.06-2.614c0.742-0.872,2.004-1.308,3.785-1.308
		c1.598,0,2.801,0.22,3.623,0.668c0.818,0.443,1.232,1.25,1.232,2.418c0,0.96-0.534,1.664-1.608,2.119
		c-0.595,0.262-1.587,0.478-2.979,0.654l-2.551,0.311c-2.896,0.367-5.097,0.98-6.584,1.834c-2.727,1.57-4.085,4.106-4.085,7.608
		c0,2.7,0.843,4.789,2.538,6.263c1.688,1.474,3.838,2.093,6.432,2.213c16.268,0.727,16.083-8.574,16.232-10.509v-10.704
		C101.632,158.108,100.417,155.772,97.984,154.532 M94.204,170.777c-0.047,2.493-0.762,4.207-2.133,5.148
		c-1.37,0.942-2.871,1.414-4.496,1.414c-1.03,0-1.902-0.287-2.618-0.85c-0.719-0.567-1.077-1.489-1.077-2.762
		c0-1.426,0.587-2.482,1.761-3.163c0.698-0.4,1.837-0.742,3.428-1.017l1.697-0.313c0.849-0.162,1.515-0.332,1.995-0.517
		c0.493-0.178,0.969-0.416,1.443-0.716V170.777z"/>
	<path fill="#1F9CD8" d="M159.682,156.891c-2.399-3.007-6.042-4.507-10.927-4.507c-4.878,0-8.52,1.5-10.92,4.507
		c-2.399,3.002-3.6,6.553-3.6,10.649c0,4.17,1.2,7.729,3.6,10.695c2.4,2.954,6.042,4.44,10.92,4.44c4.885,0,8.527-1.486,10.927-4.44
		c2.397-2.967,3.595-6.525,3.595-10.695C163.276,163.443,162.079,159.893,159.682,156.891 M153.737,174.124
		c-1.162,1.547-2.829,2.319-5.004,2.319c-2.171,0-3.847-0.772-5.018-2.319c-1.176-1.54-1.761-3.738-1.761-6.584
		c0-2.844,0.585-5.035,1.761-6.57c1.171-1.537,2.847-2.303,5.018-2.303c2.175,0,3.842,0.766,5.004,2.303
		c1.164,1.535,1.746,3.727,1.746,6.57C155.483,170.386,154.901,172.584,153.737,174.124"/>
</g>
</svg>
