<svg xmlns="http://www.w3.org/2000/svg" xmlns:xlink="http://www.w3.org/1999/xlink" width="500" zoomAndPan="magnify" viewBox="0 0 375 374.999991" height="500" preserveAspectRatio="xMidYMid meet" version="1.0"><defs><clipPath id="5bbfd14c79"><path d="M 99 25 L 325.269531 25 L 325.269531 292 L 99 292 Z M 99 25 " clip-rule="nonzero"/></clipPath><clipPath id="97d3ead051"><path d="M 50.019531 53 L 276 53 L 276 295 L 50.019531 295 Z M 50.019531 53 " clip-rule="nonzero"/></clipPath></defs><path fill="#f4b34a" d="M 159.464844 351.703125 L 149.171875 345.769531 L 149.171875 226.523438 L 159.464844 232.457031 Z M 159.464844 351.703125 " fill-opacity="1" fill-rule="nonzero"/><path fill="#fcc05e" d="M 159.464844 232.457031 L 149.171875 226.523438 L 159.464844 220.59375 L 169.765625 226.523438 Z M 159.464844 232.457031 " fill-opacity="1" fill-rule="nonzero"/><path fill="#e58842" d="M 169.765625 345.769531 L 159.464844 351.703125 L 159.464844 232.457031 L 169.765625 226.523438 Z M 169.765625 345.769531 " fill-opacity="1" fill-rule="nonzero"/><path fill="#f4b34a" d="M 195.328125 315.910156 L 185.03125 309.976562 L 185.03125 226.523438 L 195.328125 232.457031 Z M 195.328125 315.910156 " fill-opacity="1" fill-rule="nonzero"/><path fill="#fcc05e" d="M 195.328125 232.457031 L 185.03125 226.523438 L 195.328125 220.59375 L 205.625 226.523438 Z M 195.328125 232.457031 " fill-opacity="1" fill-rule="nonzero"/><path fill="#e58842" d="M 205.625 309.976562 L 195.328125 315.910156 L 195.328125 232.457031 L 205.625 226.523438 Z M 205.625 309.976562 " fill-opacity="1" fill-rule="nonzero"/><path fill="#f4b34a" d="M 244.761719 344.296875 L 195.328125 315.910156 L 195.328125 304.042969 L 244.761719 332.429688 Z M 244.761719 344.296875 " fill-opacity="1" fill-rule="nonzero"/><path fill="#fcc05e" d="M 244.761719 332.429688 L 195.328125 304.042969 L 205.625 298.109375 L 255.058594 326.496094 Z M 244.761719 332.429688 " fill-opacity="1" fill-rule="nonzero"/><path fill="#e58842" d="M 255.058594 338.367188 L 244.761719 344.296875 L 244.761719 332.429688 L 255.058594 326.496094 Z M 255.058594 338.367188 " fill-opacity="1" fill-rule="nonzero"/><path fill="#e58842" d="M 123.609375 276.527344 L 73.574219 247.609375 L 73.574219 235.742188 L 123.609375 264.65625 Z M 123.609375 276.527344 " fill-opacity="1" fill-rule="nonzero"/><path fill="#fcc05e" d="M 123.609375 264.65625 L 73.574219 235.738281 L 83.871094 229.808594 L 133.902344 258.726562 Z M 123.609375 264.65625 " fill-opacity="1" fill-rule="nonzero"/><path fill="#e58842" d="M 133.902344 270.589844 L 123.609375 276.527344 L 123.609375 264.65625 L 133.902344 258.726562 Z M 133.902344 270.589844 " fill-opacity="1" fill-rule="nonzero"/><path fill="#f4b34a" d="M 123.609375 276.527344 L 133.902344 270.589844 L 133.902344 187.136719 L 123.609375 193.074219 Z M 123.609375 276.527344 " fill-opacity="1" fill-rule="nonzero"/><path fill="#fcc05e" d="M 123.609375 193.074219 L 133.902344 187.136719 L 123.609375 181.203125 L 113.308594 187.136719 Z M 123.609375 193.074219 " fill-opacity="1" fill-rule="nonzero"/><path fill="#e58842" d="M 113.308594 270.589844 L 123.609375 276.527344 L 123.609375 193.074219 L 113.308594 187.136719 Z M 113.308594 270.589844 " fill-opacity="1" fill-rule="nonzero"/><g clip-path="url(#5bbfd14c79)"><path fill="#4c1ea5" d="M 282.675781 161.421875 C 278.648438 159.101562 274.765625 157.550781 271.070312 156.625 C 270.675781 142.46875 260.777344 125.605469 248.59375 118.585938 C 245.84375 117 243.21875 116.082031 240.777344 115.722656 C 236.519531 83.59375 214.214844 48.085938 187.261719 32.550781 C 172.28125 23.917969 158.722656 23.09375 148.898438 28.734375 L 99.265625 57.214844 L 115.699219 75.949219 C 105.902344 79.300781 99.597656 89.5 99.597656 105.066406 C 99.597656 132.207031 118.6875 165.207031 142.234375 178.777344 C 159.582031 188.773438 217.429688 222.109375 254.839844 243.667969 L 246.519531 247.320312 L 263.160156 291.1875 L 312.792969 262.707031 C 320.527344 258.265625 325.308594 248.726562 325.308594 235.136719 C 325.316406 207.996094 306.226562 174.992188 282.675781 161.421875 Z M 282.675781 161.421875 " fill-opacity="1" fill-rule="nonzero"/></g><g clip-path="url(#97d3ead051)"><path fill="#8f58f9" d="M 233.046875 189.90625 C 229.019531 187.585938 225.132812 186.035156 221.4375 185.109375 C 221.042969 170.957031 211.148438 154.089844 198.964844 147.070312 C 196.210938 145.484375 193.585938 144.566406 191.148438 144.207031 C 186.890625 112.078125 164.582031 76.570312 137.628906 61.039062 C 122.652344 52.40625 109.09375 51.578125 99.265625 57.21875 C 89.414062 62.871094 83.320312 75.027344 83.320312 92.332031 C 83.320312 96.523438 83.695312 100.820312 84.371094 105.167969 C 64.765625 98.296875 49.96875 109.660156 49.96875 133.550781 C 49.96875 160.691406 69.058594 193.695312 92.609375 207.261719 C 115.566406 220.492188 209.496094 274.621094 233.042969 288.191406 C 244.800781 294.96875 255.449219 295.617188 263.160156 291.191406 C 270.894531 286.75 275.679688 277.210938 275.679688 263.625 C 275.6875 236.476562 256.597656 203.476562 233.046875 189.90625 Z M 233.046875 189.90625 " fill-opacity="1" fill-rule="nonzero"/></g><path fill="#e8dac5" d="M 170.652344 172.933594 C 170.792969 174.449219 170.851562 175.9375 170.851562 177.414062 C 170.851562 178.890625 170.792969 180.316406 170.652344 181.667969 L 164.375 179.738281 C 164.035156 181.945312 163.496094 183.941406 162.75 185.734375 L 167.445312 193.503906 C 166.402344 195.582031 165.136719 197.375 163.65625 198.875 L 157.539062 193.226562 C 156.214844 194.3125 154.730469 195.167969 153.125 195.765625 L 154.96875 203.882812 C 152.925781 204.414062 150.738281 204.609375 148.414062 204.496094 L 144.019531 196.53125 C 142.097656 196.273438 140.089844 195.746094 138.003906 194.9375 L 136.539062 201.328125 C 135.292969 200.773438 134.03125 200.113281 132.746094 199.375 C 131.464844 198.636719 130.203125 197.839844 128.957031 196.960938 L 127.492188 188.878906 C 125.402344 187.285156 123.398438 185.503906 121.472656 183.542969 L 117.082031 186.421875 C 114.757812 183.878906 112.570312 181.160156 110.523438 178.269531 L 112.371094 172.28125 C 110.765625 169.832031 109.28125 167.265625 107.957031 164.65625 L 101.839844 163.257812 C 100.359375 160.042969 99.09375 156.796875 98.027344 153.503906 L 102.742188 151.15625 C 101.996094 148.507812 101.457031 145.886719 101.117188 143.285156 L 94.839844 137.976562 C 94.699219 136.460938 94.640625 134.96875 94.640625 133.492188 C 94.640625 132.011719 94.699219 130.59375 94.839844 129.242188 L 101.117188 131.171875 C 101.457031 128.964844 101.996094 126.964844 102.742188 125.171875 L 98.046875 117.40625 C 99.089844 115.328125 100.355469 113.535156 101.835938 112.035156 L 107.953125 117.683594 C 109.277344 116.597656 110.761719 115.742188 112.367188 115.144531 L 110.523438 107.027344 C 112.566406 106.496094 114.753906 106.300781 117.078125 106.414062 L 121.472656 114.378906 C 123.394531 114.636719 125.402344 115.164062 127.488281 115.972656 L 128.953125 109.582031 C 130.199219 110.132812 131.460938 110.792969 132.746094 111.53125 C 134.027344 112.269531 135.289062 113.070312 136.535156 113.949219 L 138 122.027344 C 140.085938 123.621094 142.09375 125.40625 144.015625 127.367188 L 148.410156 124.488281 C 150.734375 127.03125 152.921875 129.75 154.96875 132.636719 L 153.121094 138.625 C 154.726562 141.074219 156.210938 143.640625 157.535156 146.253906 L 163.652344 147.652344 C 165.132812 150.863281 166.398438 154.113281 167.464844 157.40625 L 162.75 159.753906 C 163.496094 162.402344 164.035156 165.023438 164.375 167.625 Z M 148.789062 164.703125 C 148.789062 154.480469 141.609375 142.070312 132.746094 136.960938 C 123.878906 131.855469 116.699219 135.988281 116.699219 146.207031 C 116.699219 156.425781 123.878906 168.839844 132.746094 173.949219 C 141.609375 179.054688 148.789062 174.921875 148.789062 164.703125 Z M 148.789062 164.703125 " fill-opacity="1" fill-rule="nonzero"/><path fill="#dbc6a9" d="M 132.746094 178.574219 C 121.683594 172.203125 112.6875 156.644531 112.6875 143.898438 C 112.6875 131.152344 121.683594 125.964844 132.746094 132.339844 C 143.804688 138.714844 152.800781 154.269531 152.800781 167.015625 C 152.800781 179.761719 143.804688 184.945312 132.746094 178.574219 Z M 132.746094 136.960938 C 123.894531 131.863281 116.699219 136.011719 116.699219 146.207031 C 116.699219 156.40625 123.894531 168.851562 132.746094 173.949219 C 141.59375 179.042969 148.789062 174.898438 148.789062 164.703125 C 148.789062 154.503906 141.59375 142.058594 132.746094 136.960938 Z M 132.746094 136.960938 " fill-opacity="1" fill-rule="nonzero"/><path fill="#dbc6a9" d="M 130.046875 183.789062 C 128.597656 182.785156 127.15625 181.644531 125.761719 180.390625 L 126.832031 176.554688 C 128.015625 177.609375 129.230469 178.578125 130.457031 179.429688 Z M 136.574219 187.390625 L 135.992188 182.480469 C 137.207031 182.972656 138.417969 183.347656 139.582031 183.582031 L 140.824219 188.691406 C 139.445312 188.414062 138.015625 187.976562 136.574219 187.390625 Z M 119.726562 174 C 118.46875 172.4375 117.265625 170.777344 116.148438 169.070312 L 118.699219 166.976562 C 119.648438 168.425781 120.671875 169.832031 121.734375 171.152344 L 119.730469 174 Z M 146.730469 188.878906 L 144.574219 183.738281 C 145.613281 183.574219 146.601562 183.28125 147.511719 182.855469 L 150.203125 187.835938 C 149.125 188.335938 147.953125 188.6875 146.730469 188.878906 Z M 111.671875 161.011719 C 110.8125 159.167969 110.050781 157.285156 109.402344 155.414062 L 112.988281 155.414062 C 113.539062 157 114.183594 158.59375 114.910156 160.152344 Z M 154.46875 184.601562 L 151.125 180.117188 C 151.808594 179.328125 152.40625 178.417969 152.90625 177.414062 L 156.570312 181.410156 C 155.984375 182.59375 155.273438 183.667969 154.46875 184.601562 Z M 107.242188 147.058594 C 106.941406 145.253906 106.753906 143.46875 106.695312 141.757812 L 110.703125 143.867188 C 110.757812 145.316406 110.914062 146.828125 111.167969 148.359375 Z M 158.460938 175.277344 L 154.5 172.230469 C 154.703125 170.960938 154.808594 169.59375 154.808594 168.164062 L 158.816406 170.367188 L 158.816406 170.476562 C 158.816406 172.164062 158.699219 173.777344 158.460938 175.277344 Z M 111.148438 137.769531 L 107.222656 134.5625 C 107.519531 133.09375 107.941406 131.710938 108.46875 130.460938 L 112.203125 134.304688 C 111.753906 135.363281 111.398438 136.53125 111.148438 137.769531 Z M 154.09375 161.339844 C 153.78125 159.785156 153.371094 158.195312 152.867188 156.617188 L 156.527344 156.832031 C 157.121094 158.695312 157.609375 160.574219 157.980469 162.410156 Z M 114.859375 130.25 L 111.613281 125.667969 C 112.464844 124.800781 113.417969 124.070312 114.457031 123.496094 L 117.269531 128.414062 C 116.394531 128.902344 115.582031 129.519531 114.859375 130.25 Z M 149.992188 149.53125 C 149.222656 147.984375 148.367188 146.449219 147.453125 144.972656 L 150.125 143.070312 C 151.210938 144.808594 152.21875 146.621094 153.121094 148.445312 Z M 121.664062 127.074219 L 119.648438 121.914062 C 120.90625 121.792969 122.230469 121.832031 123.585938 122.03125 L 124.992188 127.171875 C 123.851562 127.003906 122.730469 126.972656 121.664062 127.074219 Z M 142.902344 138.730469 C 141.8125 137.445312 140.664062 136.234375 139.496094 135.128906 L 140.722656 131.433594 C 142.109375 132.746094 143.460938 134.175781 144.753906 135.695312 Z M 130.367188 128.804688 L 129.941406 123.964844 C 131.386719 124.617188 132.863281 125.425781 134.300781 126.355469 L 134.0625 130.832031 C 132.839844 130.042969 131.59375 129.355469 130.367188 128.804688 Z M 130.367188 128.804688 " fill-opacity="1" fill-rule="nonzero"/><path fill="#e8dac5" d="M 239.863281 239.414062 C 239.976562 240.632812 240.023438 241.832031 240.023438 243.023438 C 240.023438 244.210938 239.972656 245.355469 239.863281 246.441406 L 234.8125 244.890625 C 234.539062 246.667969 234.101562 248.273438 233.507812 249.714844 L 237.285156 255.964844 C 236.445312 257.636719 235.429688 259.074219 234.238281 260.285156 L 229.316406 255.738281 C 228.253906 256.613281 227.058594 257.300781 225.765625 257.785156 L 227.25 264.3125 C 225.605469 264.738281 223.847656 264.898438 221.976562 264.804688 L 218.445312 258.398438 C 216.898438 258.191406 215.285156 257.765625 213.605469 257.117188 L 212.425781 262.257812 C 211.425781 261.808594 210.40625 261.28125 209.375 260.683594 C 208.34375 260.085938 207.328125 259.449219 206.328125 258.742188 L 205.152344 252.242188 C 203.472656 250.960938 201.863281 249.527344 200.3125 247.949219 L 196.78125 250.261719 C 194.910156 248.21875 193.148438 246.03125 191.507812 243.710938 L 192.988281 238.894531 C 191.699219 236.921875 190.503906 234.859375 189.441406 232.757812 L 184.519531 231.632812 C 183.324219 229.046875 182.308594 226.433594 181.453125 223.785156 L 185.246094 221.898438 C 184.648438 219.769531 184.214844 217.660156 183.9375 215.566406 L 178.890625 211.300781 C 178.777344 210.082031 178.730469 208.882812 178.730469 207.691406 C 178.730469 206.503906 178.777344 205.359375 178.890625 204.269531 L 183.9375 205.824219 C 184.214844 204.046875 184.652344 202.441406 185.246094 201 L 181.46875 194.75 C 182.308594 193.078125 183.324219 191.636719 184.515625 190.429688 L 189.4375 194.976562 C 190.5 194.101562 191.695312 193.414062 192.984375 192.929688 L 191.503906 186.402344 C 193.148438 185.976562 194.90625 185.816406 196.777344 185.910156 L 200.308594 192.316406 C 201.855469 192.523438 203.46875 192.949219 205.148438 193.597656 L 206.324219 188.457031 C 207.324219 188.90625 208.34375 189.433594 209.375 190.03125 C 210.40625 190.628906 211.421875 191.265625 212.421875 191.972656 L 213.597656 198.472656 C 215.277344 199.753906 216.886719 201.1875 218.4375 202.765625 L 221.96875 200.453125 C 223.839844 202.496094 225.601562 204.683594 227.242188 207.003906 L 225.761719 211.820312 C 227.050781 213.792969 228.246094 215.855469 229.308594 217.957031 L 234.230469 219.082031 C 235.425781 221.667969 236.4375 224.28125 237.296875 226.929688 L 233.503906 228.816406 C 234.101562 230.945312 234.535156 233.054688 234.8125 235.148438 Z M 222.28125 232.796875 C 222.28125 224.578125 216.507812 214.59375 209.375 210.484375 C 202.246094 206.371094 196.472656 209.703125 196.472656 217.917969 C 196.472656 226.136719 202.246094 236.121094 209.375 240.230469 C 216.507812 244.34375 222.28125 241.015625 222.28125 232.796875 Z M 222.28125 232.796875 " fill-opacity="1" fill-rule="nonzero"/></svg>