<svg xmlns="http://www.w3.org/2000/svg" xmlns:xlink="http://www.w3.org/1999/xlink" width="500" zoomAndPan="magnify" viewBox="0 0 375 374.999991" height="500" preserveAspectRatio="xMidYMid meet" version="1.0"><defs><clipPath id="6e4f01e013"><path d="M 26.941406 52.03125 L 347.941406 52.03125 L 347.941406 322.78125 L 26.941406 322.78125 Z M 26.941406 52.03125 " clip-rule="nonzero"/></clipPath></defs><g clip-path="url(#6e4f01e013)"><path fill="#000000" d="M 327.878906 52.03125 L 47.003906 52.03125 C 35.972656 52.03125 26.941406 61.058594 26.941406 72.085938 L 26.941406 282.667969 C 26.941406 293.699219 35.972656 302.722656 47.003906 302.722656 L 152.332031 302.722656 L 152.332031 312.75 L 122.238281 312.75 C 119.480469 312.75 117.222656 315.007812 117.222656 317.765625 C 117.222656 320.523438 119.480469 322.777344 122.238281 322.777344 L 252.644531 322.777344 C 255.40625 322.777344 257.660156 320.523438 257.660156 317.765625 C 257.660156 315.007812 255.40625 312.75 252.644531 312.75 L 222.550781 312.75 L 222.550781 302.722656 L 327.878906 302.722656 C 338.914062 302.722656 347.941406 293.699219 347.941406 282.667969 L 347.941406 72.085938 C 347.941406 61.058594 338.914062 52.03125 327.878906 52.03125 Z M 212.519531 312.75 L 162.363281 312.75 L 162.363281 302.722656 L 212.519531 302.722656 Z M 337.910156 270.132812 L 36.972656 270.132812 L 36.972656 72.085938 C 36.972656 66.574219 41.488281 62.058594 47.003906 62.058594 L 327.878906 62.058594 C 333.398438 62.058594 337.910156 66.574219 337.910156 72.085938 Z M 337.910156 270.132812 " fill-opacity="1" fill-rule="nonzero"/></g><path fill="#000000" d="M 305.308594 74.59375 C 295.53125 74.59375 287.753906 82.367188 287.753906 92.144531 C 287.753906 100.164062 293.023438 106.683594 300.292969 108.9375 L 300.292969 152.308594 L 270.199219 152.308594 L 270.199219 114.707031 C 270.199219 111.949219 267.945312 109.691406 265.183594 109.691406 L 192.457031 109.691406 L 192.457031 106.433594 C 199.730469 104.175781 204.996094 97.660156 204.996094 89.636719 C 204.996094 79.859375 197.222656 72.085938 187.441406 72.085938 C 177.664062 72.085938 169.886719 79.859375 169.886719 89.636719 C 169.886719 97.660156 175.15625 104.175781 182.425781 106.433594 L 182.425781 109.691406 L 109.699219 109.691406 C 106.941406 109.691406 104.683594 111.949219 104.683594 114.707031 L 104.683594 152.308594 L 74.589844 152.308594 L 74.589844 108.9375 C 81.863281 106.683594 87.128906 100.164062 87.128906 92.144531 C 87.128906 82.367188 79.355469 74.59375 69.574219 74.59375 C 59.796875 74.59375 52.019531 82.367188 52.019531 92.144531 C 52.019531 100.164062 57.289062 106.683594 64.558594 108.9375 L 64.558594 199.941406 L 122.238281 199.941406 L 122.238281 201.191406 C 122.238281 207.210938 126.253906 212.222656 131.769531 213.726562 C 132.523438 216.234375 133.523438 218.492188 134.777344 220.746094 C 132.019531 225.761719 132.773438 232.027344 137.035156 236.289062 L 145.8125 245.0625 C 148.320312 247.570312 151.582031 248.824219 155.09375 248.824219 C 157.347656 248.824219 159.605469 248.324219 161.363281 247.320312 C 163.617188 248.324219 166.125 249.324219 168.382812 250.328125 C 169.886719 255.84375 175.15625 259.855469 180.921875 259.855469 L 193.460938 259.855469 C 199.480469 259.855469 204.496094 255.84375 206 250.328125 C 208.507812 249.578125 210.765625 248.574219 213.023438 247.320312 C 215.027344 248.324219 217.035156 248.824219 219.292969 248.824219 C 222.804688 248.824219 226.0625 247.570312 228.570312 245.0625 L 237.347656 236.289062 C 241.613281 232.027344 242.363281 225.761719 239.605469 220.746094 C 240.859375 218.492188 241.613281 215.984375 242.613281 213.726562 C 248.132812 212.222656 252.144531 206.960938 252.144531 201.191406 L 252.144531 199.941406 L 309.824219 199.941406 L 309.824219 108.9375 C 317.097656 106.683594 322.363281 100.164062 322.363281 92.144531 C 322.863281 82.367188 315.089844 74.59375 305.308594 74.59375 Z M 187.441406 214.980469 C 176.410156 214.980469 167.378906 205.957031 167.378906 194.925781 C 167.378906 183.894531 176.410156 174.871094 187.441406 174.871094 C 198.476562 174.871094 207.503906 183.894531 207.503906 194.925781 C 207.503906 205.957031 198.476562 214.980469 187.441406 214.980469 Z M 300.292969 189.914062 L 252.644531 189.914062 L 252.644531 188.660156 C 252.644531 182.640625 248.632812 177.628906 243.117188 176.125 C 242.363281 173.617188 241.359375 171.359375 240.105469 169.105469 C 241.109375 167.097656 241.613281 165.09375 241.613281 162.835938 C 241.613281 159.328125 240.359375 156.070312 237.851562 153.5625 L 228.820312 144.539062 C 226.3125 142.03125 223.054688 140.777344 219.542969 140.777344 C 217.285156 140.777344 215.28125 141.277344 213.273438 142.28125 C 211.015625 141.027344 208.507812 140.277344 206.25 139.273438 C 204.746094 133.757812 199.480469 129.746094 193.710938 129.746094 L 181.171875 129.746094 C 175.15625 129.746094 170.140625 133.757812 168.632812 139.273438 C 166.125 140.023438 163.871094 141.027344 161.613281 142.28125 C 159.605469 141.277344 157.601562 140.777344 155.34375 140.777344 C 151.832031 140.777344 148.570312 142.03125 146.0625 144.539062 L 137.035156 153.5625 C 132.773438 157.824219 132.019531 164.089844 134.777344 169.105469 C 133.523438 171.359375 132.773438 173.867188 131.769531 176.125 C 126.253906 177.628906 122.238281 182.894531 122.238281 188.660156 L 122.238281 189.914062 L 74.589844 189.914062 L 74.589844 162.335938 L 109.699219 162.335938 C 112.460938 162.335938 114.714844 160.078125 114.714844 157.324219 L 114.714844 119.71875 L 260.167969 119.71875 L 260.167969 157.324219 C 260.167969 160.078125 262.425781 162.335938 265.183594 162.335938 L 300.292969 162.335938 Z M 300.292969 189.914062 " fill-opacity="1" fill-rule="nonzero"/></svg>