<svg xmlns="http://www.w3.org/2000/svg" xmlns:xlink="http://www.w3.org/1999/xlink" width="500" zoomAndPan="magnify" viewBox="0 0 375 374.999991" height="500" preserveAspectRatio="xMidYMid meet" version="1.0"><defs><clipPath id="e4e5fe7a17"><path d="M 31.546875 31.546875 L 343.546875 31.546875 L 343.546875 343.546875 L 31.546875 343.546875 Z M 31.546875 31.546875 " clip-rule="nonzero"/></clipPath></defs><g clip-path="url(#e4e5fe7a17)"><path fill="#000000" d="M 187.546875 31.546875 C 230.617188 31.546875 269.617188 48.992188 297.882812 77.257812 C 326.105469 105.476562 343.546875 144.476562 343.546875 187.546875 C 343.546875 230.617188 326.105469 269.617188 297.882812 297.882812 C 269.617188 326.105469 230.617188 343.546875 187.546875 343.546875 C 144.476562 343.546875 105.476562 326.105469 77.257812 297.882812 C 48.992188 269.617188 31.546875 230.617188 31.546875 187.546875 C 31.546875 144.476562 48.992188 105.476562 77.257812 77.257812 C 105.476562 48.992188 144.476562 31.546875 187.546875 31.546875 Z M 179.542969 246.71875 C 179.273438 247.523438 178.871094 248.238281 178.246094 248.910156 C 177.664062 249.535156 176.902344 249.984375 176.007812 250.339844 C 175.160156 250.652344 174.21875 250.832031 173.324219 250.96875 C 172.074219 251.144531 170.777344 251.144531 169.523438 251.144531 C 168.003906 251.144531 166.4375 251.101562 164.917969 250.832031 C 163.753906 250.652344 162.546875 250.339844 161.605469 249.714844 C 160.578125 249.042969 159.863281 248.058594 159.683594 246.851562 C 159.550781 245.824219 159.730469 244.796875 160.042969 243.855469 L 198.328125 126.5 C 198.550781 125.648438 198.90625 124.886719 199.488281 124.21875 C 200.117188 123.5 200.875 123.007812 201.769531 122.652344 C 202.664062 122.339844 203.605469 122.160156 204.542969 122.027344 C 205.796875 121.890625 207.046875 121.847656 208.300781 121.847656 C 209.867188 121.847656 211.476562 121.890625 212.996094 122.160156 C 214.160156 122.339844 215.320312 122.652344 216.261719 123.324219 C 217.289062 123.992188 217.960938 124.976562 218.140625 126.140625 C 218.273438 127.125 218.140625 128.109375 217.871094 129.136719 Z M 266.171875 211.117188 L 237.90625 211.117188 L 233.167969 225.832031 C 232.988281 226.59375 232.675781 227.308594 232.273438 227.890625 C 231.691406 228.738281 230.886719 229.277344 229.945312 229.632812 C 228.960938 230.035156 227.800781 230.171875 226.726562 230.257812 C 225.207031 230.394531 223.640625 230.394531 222.121094 230.394531 C 220.507812 230.394531 218.855469 230.347656 217.246094 230.171875 C 215.902344 230.035156 214.5625 229.632812 213.621094 228.558594 C 212.726562 227.53125 212.503906 226.144531 212.683594 224.804688 C 212.90625 223.507812 213.308594 222.121094 213.757812 220.867188 L 239.292969 147.339844 C 239.5625 146.488281 239.921875 145.683594 240.457031 145.015625 C 241.128906 144.121094 242.066406 143.582031 243.140625 143.226562 C 244.257812 142.867188 245.554688 142.734375 246.761719 142.6875 C 248.550781 142.597656 250.339844 142.597656 252.128906 142.597656 C 254.144531 142.597656 256.199219 142.597656 258.210938 142.6875 C 259.507812 142.734375 260.941406 142.867188 262.191406 143.226562 C 263.265625 143.539062 264.296875 144.074219 265.101562 145.058594 C 265.636719 145.820312 266.039062 146.667969 266.308594 147.519531 L 291.890625 221 C 292.335938 222.296875 292.742188 223.683594 292.964844 225.027344 C 293.144531 226.414062 292.875 227.800781 291.800781 228.875 C 290.773438 229.769531 289.386719 230.125 288.089844 230.214844 C 286.390625 230.394531 284.644531 230.394531 282.992188 230.394531 C 281.246094 230.394531 279.5 230.394531 277.757812 230.304688 C 276.683594 230.257812 275.519531 230.125 274.492188 229.8125 C 273.554688 229.542969 272.703125 229.097656 272.121094 228.335938 C 271.628906 227.710938 271.363281 227.039062 271.136719 226.324219 Z M 101.363281 174.085938 C 101.40625 176.769531 101.453125 179.453125 101.453125 182.136719 L 101.453125 225.519531 C 101.453125 226.324219 101.183594 227.128906 100.691406 227.890625 C 100.15625 228.605469 99.394531 229.097656 98.589844 229.410156 C 97.695312 229.8125 96.667969 229.992188 95.726562 230.125 C 94.386719 230.304688 93 230.304688 91.65625 230.304688 C 90.359375 230.304688 88.972656 230.304688 87.675781 230.125 C 86.738281 229.992188 85.710938 229.8125 84.859375 229.453125 C 84.011719 229.097656 83.203125 228.558594 82.710938 227.753906 C 82.308594 227.085938 82.085938 226.324219 82.085938 225.519531 L 82.085938 151.007812 C 82.085938 148.683594 82.757812 146.488281 84.589844 144.925781 C 86.203125 143.539062 88.125 142.914062 90.269531 142.914062 L 99.261719 142.914062 C 100.828125 142.914062 102.4375 143.046875 103.914062 143.402344 C 105.210938 143.761719 106.460938 144.296875 107.578125 145.105469 C 108.742188 145.953125 109.726562 147.117188 110.53125 148.277344 C 111.472656 149.710938 112.320312 151.230469 113.035156 152.664062 L 129.136719 183.03125 C 130.078125 184.820312 130.972656 186.609375 131.910156 188.441406 C 132.847656 190.1875 133.742188 191.976562 134.59375 193.808594 C 134.816406 194.300781 135.039062 194.792969 135.265625 195.238281 C 135.21875 192.289062 135.21875 189.335938 135.21875 186.382812 L 135.21875 147.472656 C 135.21875 146.625 135.488281 145.773438 135.980469 145.105469 C 136.515625 144.386719 137.277344 143.894531 138.082031 143.539062 C 139.019531 143.136719 140.09375 142.957031 141.078125 142.824219 C 142.421875 142.6875 143.761719 142.6875 145.105469 142.6875 C 146.402344 142.6875 147.699219 142.6875 148.996094 142.824219 C 149.980469 142.957031 151.050781 143.136719 151.945312 143.582031 C 152.707031 143.941406 153.46875 144.523438 153.914062 145.238281 C 154.316406 145.953125 154.539062 146.667969 154.539062 147.472656 L 154.539062 221.984375 C 154.539062 223.148438 154.316406 224.3125 153.871094 225.472656 C 153.378906 226.457031 152.75 227.351562 151.945312 228.066406 C 151.140625 228.785156 150.15625 229.320312 149.128906 229.632812 C 148.144531 229.902344 147.160156 230.082031 146.132812 230.082031 L 138.933594 230.082031 C 137.457031 230.082031 135.980469 229.945312 134.503906 229.542969 C 133.074219 229.140625 131.820312 228.425781 130.746094 227.488281 C 129.496094 226.457031 128.511719 225.160156 127.660156 223.820312 C 126.542969 222.074219 125.558594 220.242188 124.664062 218.453125 L 104.089844 179.675781 C 103.152344 177.84375 102.257812 175.964844 101.363281 174.085938 Z M 251.90625 167.332031 L 243.183594 193.988281 L 260.71875 193.988281 Z M 284.152344 90.941406 C 259.464844 66.210938 225.296875 50.914062 187.546875 50.914062 C 149.84375 50.914062 115.675781 66.210938 90.941406 90.941406 C 66.210938 115.675781 50.914062 149.84375 50.914062 187.546875 C 50.914062 225.296875 66.210938 259.421875 90.941406 284.152344 C 115.675781 308.886719 149.84375 324.183594 187.546875 324.183594 C 225.296875 324.183594 259.464844 308.886719 284.152344 284.152344 C 308.886719 259.421875 324.183594 225.296875 324.183594 187.546875 C 324.183594 149.84375 308.886719 115.675781 284.152344 90.941406 Z M 284.152344 90.941406 " fill-opacity="1" fill-rule="evenodd"/></g></svg>