<svg xmlns="http://www.w3.org/2000/svg" xmlns:xlink="http://www.w3.org/1999/xlink" width="500" zoomAndPan="magnify" viewBox="0 0 375 374.999991" height="500" preserveAspectRatio="xMidYMid meet" version="1.0"><defs><clipPath id="b2d022ccc9"><path d="M 37.5 37.5 L 337.5 37.5 L 337.5 242 L 37.5 242 Z M 37.5 37.5 " clip-rule="nonzero"/></clipPath><clipPath id="989cc620fc"><path d="M 289 265 L 337.5 265 L 337.5 337.5 L 289 337.5 Z M 289 265 " clip-rule="nonzero"/></clipPath><clipPath id="2b1c77e9b5"><path d="M 37.5 265 L 86 265 L 86 337.5 L 37.5 337.5 Z M 37.5 265 " clip-rule="nonzero"/></clipPath><clipPath id="c3cb4f673c"><path d="M 37.5 295 L 86 295 L 86 314 L 37.5 314 Z M 37.5 295 " clip-rule="nonzero"/></clipPath><clipPath id="1f8cfda83e"><path d="M 229 265 L 278 265 L 278 337.5 L 229 337.5 Z M 229 265 " clip-rule="nonzero"/></clipPath><clipPath id="c33a364ee4"><path d="M 97 265 L 146 265 L 146 337.5 L 97 337.5 Z M 97 265 " clip-rule="nonzero"/></clipPath><clipPath id="351654f58c"><path d="M 157 265 L 218 265 L 218 337.5 L 157 337.5 Z M 157 265 " clip-rule="nonzero"/></clipPath></defs><g clip-path="url(#b2d022ccc9)"><path fill="#583689" d="M 337.5 241.5 L 313.5 241.5 L 313.5 73.5 C 313.5 66.875 308.113281 61.5 301.5 61.5 L 73.5 61.5 C 66.886719 61.5 61.5 66.875 61.5 73.5 L 61.5 241.5 L 37.5 241.5 L 37.5 73.5 C 37.5 53.652344 53.652344 37.5 73.5 37.5 L 301.5 37.5 C 321.347656 37.5 337.5 53.652344 337.5 73.5 Z M 337.5 241.5 " fill-opacity="1" fill-rule="nonzero"/></g><path fill="#583689" d="M 49.5 85.5 L 325.5 85.5 L 325.5 109.5 L 49.5 109.5 Z M 49.5 85.5 " fill-opacity="1" fill-rule="nonzero"/><path fill="#de002a" d="M 136.5 241.5 C 133.285156 241.5 130.246094 239.773438 128.628906 236.867188 L 115.5 213.238281 L 115.5 241.5 L 97.5 241.5 L 97.5 178.5 C 97.5 174.394531 100.273438 170.808594 104.242188 169.789062 C 108.203125 168.71875 112.378906 170.53125 114.371094 174.121094 L 127.5 197.761719 L 127.5 169.5 L 145.5 169.5 L 145.5 232.5 C 145.5 236.605469 142.726562 240.191406 138.757812 241.210938 C 138 241.402344 137.242188 241.5 136.5 241.5 Z M 136.5 241.5 " fill-opacity="1" fill-rule="nonzero"/><path fill="#de002a" d="M 190.5 241.5 L 184.5 241.5 C 172.921875 241.5 163.5 232.078125 163.5 220.5 L 163.5 190.5 C 163.5 178.921875 172.921875 169.5 184.5 169.5 L 190.5 169.5 C 202.078125 169.5 211.5 178.921875 211.5 190.5 L 211.5 220.5 C 211.5 232.078125 202.078125 241.5 190.5 241.5 Z M 184.5 187.5 C 182.84375 187.5 181.5 188.84375 181.5 190.5 L 181.5 220.5 C 181.5 222.15625 182.84375 223.5 184.5 223.5 L 190.5 223.5 C 192.15625 223.5 193.5 222.15625 193.5 220.5 L 193.5 190.5 C 193.5 188.84375 192.15625 187.5 190.5 187.5 Z M 184.5 187.5 " fill-opacity="1" fill-rule="nonzero"/><path fill="#de002a" d="M 244.5 169.5 L 262.5 169.5 L 262.5 241.5 L 244.5 241.5 Z M 244.5 169.5 " fill-opacity="1" fill-rule="nonzero"/><path fill="#de002a" d="M 229.5 169.5 L 277.5 169.5 L 277.5 187.5 L 229.5 187.5 Z M 229.5 169.5 " fill-opacity="1" fill-rule="nonzero"/><g clip-path="url(#989cc620fc)"><path fill="#de002a" d="M 316.5 337.5 L 298.5 337.5 C 293.53125 337.5 289.5 333.46875 289.5 328.5 L 289.5 274.5 C 289.5 269.53125 293.53125 265.5 298.5 265.5 L 316.5 265.5 C 328.078125 265.5 337.5 274.921875 337.5 286.5 L 337.5 316.5 C 337.5 328.078125 328.078125 337.5 316.5 337.5 Z M 307.5 319.5 L 316.5 319.5 C 318.15625 319.5 319.5 318.15625 319.5 316.5 L 319.5 286.5 C 319.5 284.84375 318.15625 283.5 316.5 283.5 L 307.5 283.5 Z M 307.5 319.5 " fill-opacity="1" fill-rule="nonzero"/></g><g clip-path="url(#2b1c77e9b5)"><path fill="#de002a" d="M 55.5 337.5 L 37.5 337.5 L 37.5 286.5 C 37.5 274.921875 46.921875 265.5 58.5 265.5 L 85.5 265.5 L 85.5 283.5 L 58.5 283.5 C 56.84375 283.5 55.5 284.84375 55.5 286.5 Z M 55.5 337.5 " fill-opacity="1" fill-rule="nonzero"/></g><g clip-path="url(#c3cb4f673c)"><path fill="#de002a" d="M 37.5 295.5 L 85.5 295.5 L 85.5 313.5 L 37.5 313.5 Z M 37.5 295.5 " fill-opacity="1" fill-rule="nonzero"/></g><g clip-path="url(#1f8cfda83e)"><path fill="#de002a" d="M 268.5 337.5 C 265.285156 337.5 262.246094 335.773438 260.628906 332.867188 L 247.5 309.226562 L 247.5 337.5 L 229.5 337.5 L 229.5 274.5 C 229.5 270.394531 232.273438 266.808594 236.242188 265.789062 C 240.214844 264.742188 244.378906 266.53125 246.371094 270.121094 L 259.5 293.761719 L 259.5 265.5 L 277.5 265.5 L 277.5 328.5 C 277.5 332.605469 274.726562 336.191406 270.757812 337.210938 C 270 337.402344 269.242188 337.5 268.5 337.5 Z M 268.5 337.5 " fill-opacity="1" fill-rule="nonzero"/></g><g clip-path="url(#c33a364ee4)"><path fill="#de002a" d="M 124.5 337.5 L 118.5 337.5 C 106.921875 337.5 97.5 328.078125 97.5 316.5 L 97.5 286.5 C 97.5 274.921875 106.921875 265.5 118.5 265.5 L 124.5 265.5 C 136.078125 265.5 145.5 274.921875 145.5 286.5 L 145.5 316.5 C 145.5 328.078125 136.078125 337.5 124.5 337.5 Z M 118.5 283.5 C 116.84375 283.5 115.5 284.84375 115.5 286.5 L 115.5 316.5 C 115.5 318.15625 116.84375 319.5 118.5 319.5 L 124.5 319.5 C 126.15625 319.5 127.5 318.15625 127.5 316.5 L 127.5 286.5 C 127.5 284.84375 126.15625 283.5 124.5 283.5 Z M 118.5 283.5 " fill-opacity="1" fill-rule="nonzero"/></g><g clip-path="url(#351654f58c)"><path fill="#de002a" d="M 187.5 337.5 C 170.964844 337.5 157.5 324.046875 157.5 307.5 L 157.5 265.5 L 175.5 265.5 L 175.5 307.5 C 175.5 314.125 180.886719 319.5 187.5 319.5 C 194.113281 319.5 199.5 314.125 199.5 307.5 L 199.5 265.5 L 217.5 265.5 L 217.5 307.5 C 217.5 324.046875 204.035156 337.5 187.5 337.5 Z M 187.5 337.5 " fill-opacity="1" fill-rule="nonzero"/></g></svg>