<svg xmlns="http://www.w3.org/2000/svg" xmlns:xlink="http://www.w3.org/1999/xlink" width="500" zoomAndPan="magnify" viewBox="0 0 375 374.999991" height="500" preserveAspectRatio="xMidYMid meet" version="1.0"><defs><clipPath id="d5d9bfb091"><path d="M 30.097656 31 L 263 31 L 263 347 L 30.097656 347 Z M 30.097656 31 " clip-rule="nonzero"/></clipPath></defs><path fill="#100f0d" d="M 253.070312 106.726562 C 239.101562 116.953125 222.535156 131.453125 206.347656 148.660156 C 195.359375 160.335938 184.597656 173.222656 175 186.816406 C 171.125 181.726562 167.140625 176.8125 163.042969 172.105469 C 156.253906 164.324219 149.144531 157.050781 141.648438 150.324219 C 138.117188 147.160156 132.691406 147.460938 129.535156 151.003906 C 126.382812 154.535156 126.6875 159.953125 130.214844 163.117188 C 137.195312 169.386719 143.828125 176.15625 150.128906 183.398438 C 156.5 190.714844 162.523438 198.464844 168.265625 206.652344 C 170.984375 210.519531 176.332031 211.460938 180.207031 208.742188 C 180.429688 208.589844 182.5 206.367188 182.507812 206.367188 C 193.148438 189.832031 205.839844 174.195312 218.835938 160.386719 C 234.082031 144.183594 249.84375 130.40625 263.222656 120.605469 C 267.058594 117.804688 267.890625 112.417969 265.082031 108.59375 C 262.28125 104.757812 256.894531 103.925781 253.070312 106.726562 " fill-opacity="1" fill-rule="nonzero"/><path fill="#100f0d" d="M 302.917969 233.925781 C 291.230469 229.269531 277.984375 234.96875 273.335938 246.65625 C 268.691406 258.34375 274.394531 271.585938 286.078125 276.242188 C 297.765625 280.890625 311.003906 275.175781 315.648438 263.5 C 320.304688 251.8125 314.605469 238.570312 302.917969 233.925781 " fill-opacity="1" fill-rule="nonzero"/><path fill="#100f0d" d="M 327.589844 171.8125 C 315.871094 167.15625 302.59375 172.878906 297.9375 184.585938 C 293.269531 196.304688 298.992188 209.59375 310.707031 214.253906 C 322.425781 218.917969 335.691406 213.195312 340.359375 201.480469 C 345.027344 189.761719 339.304688 176.480469 327.589844 171.8125 " fill-opacity="1" fill-rule="nonzero"/><path fill="#100f0d" d="M 304.550781 145.695312 C 315.050781 149.867188 326.9375 144.753906 331.109375 134.253906 C 335.296875 123.753906 330.175781 111.859375 319.675781 107.679688 C 309.175781 103.5 297.277344 108.625 293.109375 119.125 C 288.929688 129.617188 294.050781 141.515625 304.550781 145.695312 " fill-opacity="1" fill-rule="nonzero"/><path fill="#100f0d" d="M 289.914062 77.082031 C 293.160156 68.902344 289.171875 59.640625 281.007812 56.394531 C 272.832031 53.136719 263.578125 57.125 260.324219 65.300781 C 257.078125 73.46875 261.054688 82.734375 269.230469 85.980469 C 277.40625 89.234375 286.65625 85.25 289.914062 77.082031 " fill-opacity="1" fill-rule="nonzero"/><path fill="#100f0d" d="M 212.769531 48.722656 C 217.980469 50.804688 223.894531 48.246094 225.964844 43.03125 C 228.042969 37.816406 225.5 31.902344 220.285156 29.824219 C 215.058594 27.753906 209.15625 30.300781 207.078125 35.515625 C 204.996094 40.738281 207.542969 46.644531 212.769531 48.722656 " fill-opacity="1" fill-rule="nonzero"/><g clip-path="url(#d5d9bfb091)"><path fill="#100f0d" d="M 259.1875 283.515625 L 191.253906 274.773438 C 187.925781 274.335938 185.390625 277.671875 186.675781 280.769531 L 193.980469 298.257812 C 193.402344 298.257812 192.824219 298.28125 192.246094 298.28125 C 158.863281 298.28125 126.6875 285.203125 102.644531 263.132812 C 78.675781 241.035156 62.839844 210.09375 60.082031 176.773438 C 56.988281 143.605469 66.917969 108.636719 88.878906 81.273438 C 103.546875 62.785156 123.792969 48.378906 146.597656 39.96875 C 148.101562 39.410156 149.265625 38.121094 149.480469 36.539062 C 149.863281 33.648438 147.207031 31.210938 144.347656 31.933594 C 119.261719 38.242188 95.410156 51.007812 76.199219 69.59375 C 47.625 96.824219 30.074219 136.851562 30.359375 178.023438 C 30.632812 198.515625 34.78125 219.171875 43.140625 238.207031 C 51.5 257.238281 63.964844 274.488281 79.203125 288.640625 C 94.558594 302.652344 112.777344 313.679688 132.449219 320.40625 C 152.085938 327.226562 173.054688 329.578125 193.496094 328.148438 C 197.644531 327.835938 201.761719 327.335938 205.839844 326.65625 L 213.074219 343.984375 C 214.359375 347.082031 218.519531 347.617188 220.546875 344.949219 L 262.097656 290.476562 C 264.128906 287.820312 262.515625 283.945312 259.1875 283.515625 " fill-opacity="1" fill-rule="nonzero"/></g></svg>