<?xml version="1.0" standalone="no"?>
<!DOCTYPE svg PUBLIC "-//W3C//DTD SVG 20010904//EN"
 "http://www.w3.org/TR/2001/REC-SVG-20010904/DTD/svg10.dtd">
<svg version="1.0" xmlns="http://www.w3.org/2000/svg"
 width="200.000000pt" height="200.000000pt" viewBox="0 0 200.000000 200.000000"
 preserveAspectRatio="xMidYMid meet">

<g transform="translate(0.000000,200.000000) scale(0.100000,-0.100000)"
fill="#000000" stroke="none">
<path d="M346 1990 c-165 -29 -309 -176 -336 -347 -10 -61 0 -159 22 -210 47
-109 151 -207 254 -240 l54 -17 0 -327 c0 -379 3 -398 88 -488 47 -50 137
-101 179 -101 35 0 73 -18 73 -35 0 -30 49 -112 86 -145 58 -50 118 -73 194
-73 247 0 375 289 210 477 -71 80 -188 113 -295 81 -78 -22 -167 -108 -188
-181 -17 -58 -36 -65 -105 -38 -56 21 -116 75 -145 128 -21 38 -22 57 -25 284
-2 133 -2 242 1 242 3 0 30 -16 62 -35 52 -31 83 -40 169 -47 25 -3 31 -9 43
-52 21 -73 110 -159 188 -181 140 -41 286 26 346 159 10 23 19 49 19 59 0 16
9 17 91 15 l92 -3 14 -49 c22 -73 110 -159 188 -181 187 -55 368 81 368 275 0
249 -293 376 -480 207 -34 -31 -68 -90 -87 -149 -5 -15 -18 -18 -96 -18 -79 0
-90 2 -90 18 -1 33 -38 100 -80 142 -58 58 -119 83 -200 83 -137 0 -239 -81
-284 -225 -8 -25 -95 -24 -144 1 -58 30 -112 97 -112 140 0 4 30 13 66 20 307
56 444 406 256 655 -89 118 -250 181 -396 156z m217 -103 c62 -31 124 -93 158
-159 17 -32 24 -66 27 -130 4 -80 2 -92 -26 -151 -37 -81 -88 -132 -169 -169
-59 -28 -71 -30 -151 -26 -64 3 -98 10 -130 27 -66 34 -128 97 -159 160 -24
49 -28 68 -28 146 0 78 4 97 27 141 49 93 107 143 206 181 60 22 179 12 245
-20z m475 -733 c202 -84 158 -386 -58 -402 -145 -11 -239 82 -228 227 5 78 41
131 111 166 59 29 120 32 175 9z m750 0 c202 -84 158 -386 -58 -402 -145 -11
-239 82 -228 227 5 78 41 131 111 166 59 29 120 32 175 9z m-710 -688 c81 -56
114 -173 73 -261 -90 -195 -384 -148 -399 65 -10 144 76 234 219 228 54 -3 74
-9 107 -32z"/>
<path d="M302 1784 c-47 -19 -54 -49 -50 -217 l3 -149 28 -24 c15 -13 38 -24
49 -24 22 0 257 139 278 166 19 22 16 70 -4 93 -20 22 -215 147 -250 160 -14
6 -33 4 -54 -5z m159 -143 c68 -44 87 -60 77 -68 -21 -17 -195 -123 -202 -123
-3 0 -6 61 -6 135 0 157 -16 150 131 56z"/>
<path d="M975 1000 c-27 -27 -54 -50 -59 -50 -5 0 -20 10 -33 22 -19 18 -28
20 -41 12 -31 -20 -25 -45 19 -90 24 -24 48 -44 54 -44 6 0 46 35 89 79 82 83
94 113 46 119 -19 2 -37 -10 -75 -48z"/>
<path d="M1725 1000 c-27 -27 -54 -50 -59 -50 -5 0 -20 10 -33 22 -19 18 -28
20 -41 12 -31 -20 -25 -45 19 -90 24 -24 48 -44 54 -44 6 0 46 35 89 79 82 83
94 113 46 119 -19 2 -37 -10 -75 -48z"/>
</g>
</svg>
