<svg xmlns="http://www.w3.org/2000/svg" xmlns:xlink="http://www.w3.org/1999/xlink" width="500" zoomAndPan="magnify" viewBox="0 0 375 374.999991" height="500" preserveAspectRatio="xMidYMid meet" version="1.0"><defs><clipPath id="8e0f3af9c4"><path d="M 9.554688 71.390625 L 365.804688 71.390625 L 365.804688 303.890625 L 9.554688 303.890625 Z M 9.554688 71.390625 " clip-rule="nonzero"/></clipPath></defs><g clip-path="url(#8e0f3af9c4)"><path fill="#100f0d" d="M 285.609375 286.429688 L 89.574219 286.429688 C 57.929688 286.429688 31.085938 262.769531 27.125 231.3125 C 26.773438 228.777344 26.605469 226.132812 26.605469 223.449219 C 26.605469 188.683594 54.855469 160.402344 89.574219 160.402344 C 94.300781 160.402344 98.144531 156.566406 98.144531 151.835938 C 98.144531 117.105469 126.417969 88.851562 161.171875 88.851562 C 185.511719 88.851562 207.917969 103.179688 218.25 125.34375 C 219.648438 128.367188 222.875 130.296875 226.210938 130.296875 C 246.054688 130.296875 264.457031 140.183594 275.417969 156.761719 C 277.109375 159.316406 279.953125 160.75 283.105469 160.582031 L 284.386719 160.480469 C 284.800781 160.449219 285.199219 160.402344 285.609375 160.402344 C 307.441406 160.402344 327.402344 171.46875 339.011719 190 C 345.269531 199.992188 348.578125 211.554688 348.578125 223.449219 C 348.578125 258.175781 320.328125 286.429688 285.609375 286.429688 Z M 353.542969 180.90625 C 339 157.691406 314.140625 143.691406 286.851562 143.273438 C 273.554688 125.734375 253.425781 114.855469 231.359375 113.34375 C 217.355469 87.886719 190.363281 71.714844 161.171875 71.714844 C 119.726562 71.714844 85.519531 103.3125 81.421875 143.675781 C 41.066406 147.78125 9.46875 181.988281 9.46875 223.449219 C 9.46875 226.898438 9.695312 230.316406 10.132812 233.539062 C 15.15625 273.457031 49.3125 303.5625 89.574219 303.5625 L 285.609375 303.5625 C 329.777344 303.5625 365.714844 267.625 365.714844 223.449219 C 365.714844 208.339844 361.503906 193.621094 353.542969 180.90625 " fill-opacity="1" fill-rule="nonzero"/></g><path fill="#100f0d" d="M 148.226562 181.324219 C 146.320312 181.355469 144.304688 182.0625 142.957031 183.40625 C 141.59375 184.773438 140.875 186.554688 140.875 188.574219 L 140.875 229.785156 L 106.019531 184.160156 C 105.320312 183.21875 104.34375 182.492188 103.132812 181.988281 C 100.011719 180.695312 96.574219 181.289062 94.351562 183.503906 C 92.898438 184.957031 92.164062 186.796875 92.164062 188.984375 L 92.164062 250.828125 C 92.164062 252.859375 92.835938 254.582031 94.15625 255.949219 C 95.425781 257.285156 97.277344 258.058594 99.234375 258.085938 C 99.257812 258.085938 99.292969 258.085938 99.320312 258.085938 C 101.289062 258.085938 103.167969 257.328125 104.492188 255.996094 C 105.859375 254.628906 106.578125 252.839844 106.578125 250.828125 L 106.578125 210.007812 L 141.648438 255.707031 C 142.378906 256.554688 143.355469 257.1875 144.546875 257.582031 C 145.527344 257.917969 146.5625 258.085938 147.625 258.085938 C 149.804688 258.085938 151.707031 257.308594 153.140625 255.8125 C 154.566406 254.320312 155.292969 252.46875 155.292969 250.316406 L 155.292969 188.574219 C 155.292969 186.554688 154.621094 184.835938 153.296875 183.449219 C 152.023438 182.125 150.175781 181.347656 148.226562 181.324219 " fill-opacity="1" fill-rule="nonzero"/><path fill="#100f0d" d="M 217.125 178 C 217.125 176.042969 216.34375 174.328125 214.867188 173.015625 C 213.460938 171.777344 211.878906 171.152344 210.171875 171.152344 C 208.589844 171.152344 205.644531 171.703125 203.707031 175.4375 L 161.015625 261.464844 C 160.53125 262.640625 160.296875 263.65625 160.296875 264.558594 C 160.296875 266.503906 161.097656 268.246094 162.613281 269.597656 C 164.039062 270.867188 165.664062 271.519531 167.460938 271.519531 C 170.304688 271.519531 172.574219 270.019531 173.816406 267.324219 L 216.324219 181.46875 C 216.855469 180.414062 217.125 179.242188 217.125 178 " fill-opacity="1" fill-rule="nonzero"/><path fill="#100f0d" d="M 256.847656 225.359375 L 241.488281 225.359375 L 249.132812 206.914062 Z M 256.746094 186.066406 C 256.203125 184.464844 255.261719 183.199219 253.929688 182.296875 C 252.699219 181.476562 251.085938 181.011719 249.988281 181.039062 C 248.210938 180.816406 246.597656 181.1875 245.152344 182.15625 C 243.882812 183.023438 242.886719 184.269531 242.167969 185.882812 L 216.074219 249.335938 C 215.894531 250.390625 215.820312 251.085938 215.820312 251.433594 C 215.820312 253.5 216.480469 255.1875 217.757812 256.472656 C 219.042969 257.75 220.796875 258.398438 222.984375 258.398438 C 224.492188 258.398438 225.894531 257.960938 227.1875 257.070312 C 228.4375 256.183594 229.367188 254.925781 229.832031 253.519531 L 235.3125 240.1875 L 263.03125 240.1875 L 268.667969 253.539062 C 269.347656 254.984375 270.273438 256.144531 271.402344 256.976562 C 272.667969 257.917969 274.101562 258.398438 275.660156 258.398438 C 277.589844 258.398438 279.367188 257.671875 280.792969 256.296875 C 282.253906 254.90625 283.019531 253.046875 283.019531 250.9375 C 283.019531 249.960938 282.871094 249.019531 282.582031 248.125 L 256.746094 186.066406 " fill-opacity="1" fill-rule="nonzero"/></svg>